<svg xmlns="http://www.w3.org/2000/svg" viewBox="0 0 710.64 99.07"><defs><style>.cls-1{fill:#db2e65;}.cls-2{fill:#3a3a3a;}.cls-3{fill:#fff;}.cls-4{fill:#ededed;}</style></defs><g id="Слой_2" data-name="Слой 2"><g id="Слой_1-2" data-name="Слой 1"><path class="cls-1" d="M0,49.53C0,12.38,12.38,0,49.53,0S99.07,12.38,99.07,49.53,86.69,99.07,49.53,99.07,0,86.69,0,49.53"/><path class="cls-2" d="M169.27,26.13H143.52V43.24H168.4v9.6H143.52V77.62h-10V16.53h35.78Z"/><path class="cls-2" d="M212.65,34h9.42V77.62h-9.42V71.34q-5.33,7.43-15.28,7.42A20.48,20.48,0,0,1,182,72.08a22.67,22.67,0,0,1-6.37-16.27A22.68,22.68,0,0,1,182,39.48a20.54,20.54,0,0,1,15.36-6.63q10,0,15.28,7.33ZM189,65.8a14.24,14.24,0,0,0,19.73,0,13.63,13.63,0,0,0,3.93-10,13.64,13.64,0,0,0-3.93-10,14.24,14.24,0,0,0-19.73,0,13.67,13.67,0,0,0-3.92,10A13.66,13.66,0,0,0,189,65.8Z"/><path class="cls-2" d="M253.67,78.76a22.38,22.38,0,0,1-16.33-6.63,22,22,0,0,1-6.72-16.32,22.07,22.07,0,0,1,6.72-16.33,23.46,23.46,0,0,1,32.69,0,22.15,22.15,0,0,1,6.68,16.33,22.73,22.73,0,0,1-23,23ZM244,65.67a13.9,13.9,0,0,0,19.37,0,13.38,13.38,0,0,0,3.93-9.86,13.39,13.39,0,0,0-3.93-9.87,13.92,13.92,0,0,0-19.37,0,13.39,13.39,0,0,0-3.93,9.87A13.38,13.38,0,0,0,244,65.67Z"/><path class="cls-2" d="M285.26,77.62V13.91h9.42V77.62Z"/><path class="cls-2" d="M363.81,26.13H338.06V43.24h24.87v9.6H338.06V77.62H328V16.53h35.79Z"/><path class="cls-2" d="M402,34h9.43V77.62H402V72q-4.27,6.72-13.53,6.72A16.09,16.09,0,0,1,376.37,74q-4.62-4.8-4.62-13.18V34h9.42V59.82c0,3.26.88,5.76,2.62,7.51A9.7,9.7,0,0,0,391,69.94a10.79,10.79,0,0,0,8-3.09q3-3.1,3-9.47Z"/><path class="cls-2" d="M457,34h9.42V95.08H457V71.43q-5.32,7.33-15.28,7.33a20.54,20.54,0,0,1-15.36-6.63A22.66,22.66,0,0,1,420,55.81a22.69,22.69,0,0,1,6.37-16.28,20.48,20.48,0,0,1,15.36-6.68q10,0,15.28,7.42ZM433.37,65.8a14.23,14.23,0,0,0,19.72,0,13.63,13.63,0,0,0,3.93-10,13.64,13.64,0,0,0-3.93-10,14.23,14.23,0,0,0-19.72,0,13.64,13.64,0,0,0-3.93,10A13.63,13.63,0,0,0,433.37,65.8Z"/><path class="cls-2" d="M512,34h9.43V77.62H512V71.34q-5.33,7.43-15.27,7.42a20.45,20.45,0,0,1-15.36-6.68A22.67,22.67,0,0,1,475,55.81a22.68,22.68,0,0,1,6.37-16.33,20.51,20.51,0,0,1,15.36-6.63q9.94,0,15.27,7.33ZM488.35,65.8a14.23,14.23,0,0,0,19.72,0,13.63,13.63,0,0,0,3.93-10,13.64,13.64,0,0,0-3.93-10,14.23,14.23,0,0,0-19.72,0,13.64,13.64,0,0,0-3.93,10A13.63,13.63,0,0,0,488.35,65.8Z"/><path class="cls-2" d="M541.85,41.32q3.57-8.12,13.44-8.12V43.41A14,14,0,0,0,545.86,46q-4,2.92-4,9.64v22h-9.43V34h9.43Z"/><path class="cls-2" d="M580.86,78.76a22.37,22.37,0,0,1-16.32-6.63,22,22,0,0,1-6.72-16.32,22.07,22.07,0,0,1,6.72-16.33,23.45,23.45,0,0,1,32.68,0,22.11,22.11,0,0,1,6.68,16.33,22.09,22.09,0,0,1-6.68,16.32A22.32,22.32,0,0,1,580.86,78.76Zm-9.69-13.09a13.91,13.91,0,0,0,19.38,0,13.38,13.38,0,0,0,3.93-9.86,13.39,13.39,0,0,0-3.93-9.87,13.94,13.94,0,0,0-19.38,0,13.38,13.38,0,0,0-3.92,9.87A13.37,13.37,0,0,0,571.17,65.67Z"/><path class="cls-2" d="M612.46,77.62V13.91h9.42V77.62Z"/><path class="cls-2" d="M667.35,34h9.42V77.62h-9.42V71.34q-5.33,7.43-15.27,7.42a20.49,20.49,0,0,1-15.37-6.68,22.71,22.71,0,0,1-6.37-16.27,22.72,22.72,0,0,1,6.37-16.33,20.55,20.55,0,0,1,15.37-6.63q9.95,0,15.27,7.33ZM643.7,65.8a14.23,14.23,0,0,0,19.72,0,13.63,13.63,0,0,0,3.93-10,13.64,13.64,0,0,0-3.93-10,14.23,14.23,0,0,0-19.72,0,13.64,13.64,0,0,0-3.93,10A13.63,13.63,0,0,0,643.7,65.8Z"/><path class="cls-2" d="M697.2,41.32q3.57-8.12,13.44-8.12V43.41A14,14,0,0,0,701.21,46q-4,2.92-4,9.64v22h-9.43V34h9.43Z"/><path class="cls-3" d="M51.09,30.62A7.92,7.92,0,1,1,59,38.53,7.91,7.91,0,0,1,51.09,30.62Z"/><path class="cls-3" d="M84.93,28.37a5.64,5.64,0,0,1-.43,2.17l-13,31.29v5.23a11.31,11.31,0,1,1-22.61,0V46.79a4.61,4.61,0,0,1,4.61-4.61H67.4L74,26.2a5.67,5.67,0,0,1,10.91,2.17Z"/><path class="cls-4" d="M43.17,37.41a6.8,6.8,0,1,0-6.79,6.79A6.79,6.79,0,0,0,43.17,37.41Z"/><path class="cls-4" d="M14.14,35.48a4.82,4.82,0,0,0,.37,1.86L25.63,64.18v4.49a9.7,9.7,0,0,0,19.4,0V51.28a4,4,0,0,0-4-4H29.17L23.5,33.62a4.87,4.87,0,0,0-9.36,1.86Z"/></g></g></svg>